<svg viewBox="0 0 1366 768">
<g id="drf">

            <g>
                <path fill="#FFF" d="M1201.9,279.1h-19.2c0,0-0.1,0-0.1,0L1201.9,279.1L1201.9,279.1z"></path>
                <path fill="#FFF" d="M1167.8,279.1h-138v0.3l137.6-0.1C1167.5,279.2,1167.6,279.1,1167.8,279.1z"></path>
                <path fill="#FFF" d="M1167.3,279.3l-137.6,0.1l-104.4,0l0,194.9l154.2-0.3c-2.2-11.3-3.3-22.9-3.3-34.8
		C1076.3,371.5,1112.8,312.2,1167.3,279.3z"></path>
                <path fill="#FFF" d="M1211.8,383c-3.2,18.7-4.9,37.7-4.9,55.5c0,2.7,0.1,5.5,0.2,8.3c13.8,1.3,28.5,2.3,44,2.7v-63.3
		C1237.6,385.6,1224.4,384.5,1211.8,383z"></path>
                <path fill="#FFF" d="M1227.2,323.2c-5.8,16.2-10.7,34.3-14.2,52.9c12,1.5,24.8,2.5,38,3.1V325C1243.1,324.6,1235,324,1227.2,323.2z
		"></path>
                <path fill="#FFF" d="M1207.4,453.9c0.4,6.5,1.1,13.2,1.9,20.1h41.7v-17.5C1236.1,456.1,1221.4,455.2,1207.4,453.9z"></path>
                <path fill="#FFF" d="M1145,474h57.2c-0.9-7.2-1.5-14.1-1.9-20.8c-21-2.2-40.7-5.4-57.7-9.2C1142.8,454.2,1143.6,464.2,1145,474z"></path>
                <path fill="#FFF" d="M1151.9,371.3c-6,20.2-9.3,42.2-9.4,65.3c16.4,3.8,35.7,7.1,57.5,9.4c-0.1-2.6-0.2-5.2-0.2-7.6
		c0-17.5,1.8-36.9,5.1-56.4C1185.3,379.4,1167.2,375.7,1151.9,371.3z"></path>
                <path fill="#FFF" d="M1179.8,313c-10.7,14.9-19.4,32.3-25.8,51.5c14.6,4.1,32.2,7.8,52.1,10.6c3.4-18.2,8.1-36.4,13.9-52.9
		C1205,320.2,1191,317.1,1179.8,313z"></path>
                <path fill="#FFF" d="M1184.2,307.2c9.9,3.4,22.8,6.4,38.2,8.4c5.2-13.9,11.3-26.3,18-36.5h-26.9
		C1202.8,286.6,1192.9,296,1184.2,307.2z"></path>
                <path fill="#FFF" d="M1249,279.1c-7,9.8-13.6,22.6-19.3,37.4c6.7,0.7,13.8,1.2,21.3,1.5v-38.9H1249z"></path>
                <path fill="#FFF" d="M1173.2,310.3c-4.9-2.2-9-4.7-12.2-7.5c-2.6-2.2-4.6-4.5-5.7-7c-17.3,13-32.2,29.1-43.9,47.3
		c1.5,4.5,10.2,9.9,24.1,15.2c3.6,1.4,7.5,2.8,11.8,4.1C1153.7,343.2,1162.5,325.6,1173.2,310.3z"></path>
                <path fill="#FFF" d="M1107.4,349.8c-10.9,18.8-18.4,39.7-21.9,61.9c0.1,3.8,6.9,8.6,19.3,13.6c8,3.2,18.4,6.5,30.7,9.6
		c0.3-23.1,3.7-45.3,9.7-65.6c-4.5-1.4-8.8-2.9-12.6-4.4C1120.6,360.2,1111.8,355.1,1107.4,349.8z"></path>
                <path fill="#FFF" d="M1164.2,296.1c2.7,2.9,7.1,5.7,13.3,8.4c7.4-9.7,15.6-18.2,24.5-25.5l-19.3,0c-4.9,2.5-9.7,5.2-14.3,8.1
		c-2.3,1.5-4.8,2.8-7,4.4C1161.6,293.1,1162.7,294.6,1164.2,296.1z"></path>
                <path fill="#FFF" d="M1101.9,431.6c-7.6-3.2-13.6-6.6-17.6-10.1c-0.6,5.8-1,11.6-1,17.5c0,9.5,0.9,18.8,2.3,27.8
		c0.4,2.3,0.8,4.7,1.2,7h51.1c-1.5-10.3-2.3-20.8-2.5-31.6C1122.3,439.1,1110.9,435.5,1101.9,431.6z"></path>
                <polygon fill="#FFF" points="1202.1,279.1 1201.9,279.1 1201.9,279.1 	"></polygon>
                <path fill="#FFF" d="M245,279.7H89.3v192.7h154.9c65.5,0,83-25.5,83-96.4C327.3,300,309.7,279.7,245,279.7z M301.2,386.5
		c0,57.8-21.8,64.7-53.5,64.7H115.4V301H252c31.9,0,49.2,10.1,49.2,65.8L301.2,386.5L301.2,386.5z"></path>
                <path fill="#FFF" d="M547.1,279.7H393v192.7h26.1v-76.1h127.2c23.7,0,38.3,3.7,38.3,33.8v42.3h24.5v-49.2c0-17.6-6.4-31.4-33-36.2
		v-0.5c20-1.9,35.4-9.3,35.4-36.5v-15.7C611.5,298.1,602.7,279.7,547.1,279.7z M585.5,347.1c0,20.2-12.2,27.9-41.2,27.9H419.1v-74
		h118.7c38.3,0,47.6,6.9,47.6,28.5L585.5,347.1L585.5,347.1z"></path>
                <polygon fill="#FFF" points="678.6,472.4 704.7,472.4 704.7,383.8 856.1,383.8 856.1,362.5 704.7,362.5 704.7,301 862.2,301
		862.2,279.7 678.6,279.7 	"></polygon>
            </g>
        </g>
</svg>