<?xml version="1.0" encoding="UTF-8" standalone="no"?>
<svg
   xmlns:dc="http://purl.org/dc/elements/1.1/"
   xmlns:cc="http://creativecommons.org/ns#"
   xmlns:rdf="http://www.w3.org/1999/02/22-rdf-syntax-ns#"
   xmlns:svg="http://www.w3.org/2000/svg"
   xmlns="http://www.w3.org/2000/svg"
   viewBox="0 0 770.55334 753.95734"
   height="753.95734"
   width="770.55334"
   xml:space="preserve"
   id="svg2"
   version="1.1"><metadata
     id="metadata8"><rdf:RDF><cc:Work
         rdf:about=""><dc:format>image/svg+xml</dc:format><dc:type
           rdf:resource="http://purl.org/dc/dcmitype/StillImage" /></cc:Work></rdf:RDF></metadata><defs
     id="defs6"><clipPath
       id="clipPath18"
       clipPathUnits="userSpaceOnUse"><path
         id="path16"
         d="M 0,565.468 H 577.915 V 0 H 0 Z" /></clipPath></defs><g
     transform="matrix(1.3333333,0,0,-1.3333333,0,753.95733)"
     id="g10"><g
       id="g12"><g
         clip-path="url(#clipPath18)"
         id="g14"><g
           transform="translate(344.408,293.0558)"
           id="g20"><path
             id="path22"
             style="fill:#f036a4;fill-opacity:1;fill-rule:evenodd;stroke:none"
             d="m 0,0 -9.44,15.172 -5.039,-17.285 -9.382,-115.369 c 1.687,-8.465 -6.239,-15.958 -4.552,-24.421 2.156,-10.812 13.923,-22.599 16.078,-33.412 l 26.583,-108.491 -17.955,104.828 c -5.517,24.217 0.913,23.269 -0.98,34.583 -1.264,7.544 -7.439,14.32 -7.64,22.501 z" /></g><g
           transform="translate(360.7327,330.7418)"
           id="g24"><path
             id="path26"
             style="fill:#931659;fill-opacity:1;fill-rule:evenodd;stroke:none"
             d="m 0,0 35.085,18.428 3.086,24.655 -162.886,33.969 -34.068,-24.628 c -15.425,-14.235 -36.318,-20.268 -63.008,-17.609 20.026,-13.397 46.93,-3.779 72.302,-10.846 21.829,-6.08 43.465,-20.458 61.966,-24.622 20.924,-4.708 36.307,3.575 46.729,-6.609 l 9.991,-32.537 14.478,2.113 C -4.971,-19.633 -7.975,-4.537 0,0" /></g><g
           transform="translate(440.4987,492.521)"
           id="g28"><path
             id="path30"
             style="fill:#ec36a4;fill-opacity:1;fill-rule:evenodd;stroke:none"
             d="m 0,0 c 2.625,11.107 12.59,16.977 23.544,14.535 14.364,-3.205 30.171,-23.314 40.104,-21.63 0.787,-6.083 2.742,-11.826 4.36,-17.66 2.159,-7.786 5.543,-5.981 2.958,-15.164 3.501,-15.096 17.738,-0.98 23.039,16.977 2.079,7.042 2.508,13.18 -0.123,15.69 C 75.66,12.114 76.468,50.792 47.652,52.859 32.738,53.929 18.813,45.07 7.205,36.606 -16.284,19.478 -25.707,-1.519 -14.98,-28.057 -3.896,-55.48 23.094,-69.803 39.865,-95.428 c 6.076,-9.283 9.887,-18.64 9.504,-27.714 -0.71,-16.826 -17.635,-31.897 -32.971,-22.787 -16.964,10.077 -14.394,49.969 -16.379,66.446 -26.681,-27.433 -24.383,-43.881 -79.785,-82.296 46.549,19.131 48.091,-4.371 74.145,-13.986 19.98,-7.371 44.817,-7.932 63.747,9.195 14.072,12.734 21.151,30.23 17.562,49.188 C 69.77,-86.123 35.424,-64.799 14.369,-38.887 5.903,-28.469 -3.321,-14.054 0,0" /></g><g
           transform="translate(508.5919,467.4594)"
           id="g32"><path
             id="path34"
             style="fill:#2e2d2d;fill-opacity:1;fill-rule:evenodd;stroke:none"
             d="M 0,0 C 2.118,-7.69 3.612,-15.564 1.06,-24.628 4.504,-39.469 20.069,-16.633 25.634,1.207 24.146,13.064 17.236,25.701 3.619,32.889 41.615,-1.875 6.808,-10.388 0,0" /></g><g
           transform="translate(504.7537,524.532)"
           id="g36"><path
             id="path38"
             style="fill:#ffffff;fill-opacity:1;fill-rule:evenodd;stroke:none"
             d="m 0,0 c -2.956,0 -5.349,-2.396 -5.349,-5.35 0,-2.956 2.393,-5.352 5.349,-5.352 2.953,0 5.348,2.396 5.348,5.352 C 5.348,-2.396 2.953,0 0,0" /></g><g
           transform="translate(381.1561,461.179)"
           id="g40"><path
             id="path42"
             style="fill:#d8198b;fill-opacity:1;fill-rule:evenodd;stroke:none"
             d="m 0,0 c -56.551,12.231 -121.925,-11.985 -179.206,-78.013 91.331,38.981 135.989,-23.87 178.393,-27.751 C 57.605,-111.11 99.093,-21.431 0,0" /></g><g
           transform="translate(542.1049,261.1704)"
           id="g44"><path
             id="path46"
             style="fill:#f036a4;fill-opacity:1;fill-rule:nonzero;stroke:none"
             d="m 0,0 c 0,2.856 -1.004,5.265 -2.989,7.272 -2.007,1.985 -4.417,2.988 -7.272,2.988 -2.854,0 -5.287,-1.003 -7.317,-2.988 C -19.606,5.265 -20.611,2.856 -20.611,0 v -65.132 c 0,-2.856 1.005,-5.265 3.033,-7.272 2.03,-1.985 4.463,-2.988 7.317,-2.988 2.855,0 5.265,1.003 7.272,2.988 1.985,2.007 2.989,4.416 2.989,7.272 z m -9.748,28.194 c 7.918,0 14.633,-2.788 20.164,-8.364 5.554,-5.577 8.321,-12.29 8.321,-20.143 v -65.042 c 0,-7.919 -2.788,-14.655 -8.366,-20.186 -5.552,-5.554 -12.267,-8.321 -20.119,-8.321 -7.918,0 -14.632,2.788 -20.141,8.365 -5.51,5.576 -8.253,12.291 -8.253,20.142 v 65.042 c 0,7.919 2.788,14.655 8.364,20.188 5.554,5.554 12.245,8.319 20.03,8.319 M -81.907,-93.862 c -7.919,0 -14.632,2.788 -20.164,8.365 -5.555,5.576 -8.32,12.268 -8.32,20.052 v 64.999 c 0,7.918 2.788,14.654 8.365,20.187 5.554,5.554 12.268,8.319 20.119,8.319 7.919,0 14.633,-2.788 20.142,-8.364 5.51,-5.576 8.254,-12.29 8.254,-20.164 v -13.607 h -18.604 v 13.986 c 0,2.833 -1.003,5.286 -3.033,7.316 -2.03,2.03 -4.461,3.033 -7.317,3.033 -2.854,0 -5.263,-1.003 -7.272,-3.033 -1.983,-2.03 -2.988,-4.46 -2.988,-7.316 v -65.177 c 0,-2.854 1.005,-5.263 2.988,-7.272 2.009,-1.985 4.418,-2.988 7.272,-2.988 2.856,0 5.287,1.003 7.317,2.988 2.03,1.986 3.033,4.395 3.033,7.228 v 23.375 h -10.037 v 18.068 h 28.641 v -41.599 c 0,-7.919 -2.788,-14.633 -8.366,-20.143 -5.553,-5.509 -12.246,-8.253 -20.03,-8.253 m -86.033,120.717 23.846,-80.031 v 80.031 h 17.932 V -92.389 h -19.294 l -24.736,76.33 v -76.33 h -17.933 V 26.855 Z M -303.624,-92.389 h -17.934 V 26.855 h 25.808 l 16.751,-85.853 16.148,85.853 h 24.67 V -92.389 h -17.932 v 74.902 l -15.637,-74.902 h -14.454 l -17.42,74.7 z m -65.468,91.809 -6.648,-46.841 h 13.318 z m -9.368,-64.373 -4.394,-27.436 h -18.737 l 20.253,119.111 h 24.715 l 19.962,-119.111 h -18.87 l -4.193,27.436 z m -35.489,-27.436 h -48.96 V 26.722 h 17.934 V -74.455 h 31.026 z m -94.53,0 h -17.934 V 26.855 h 51.146 V 8.789 h -33.212 v -32.522 h 24.223 v -18.068 h -24.223 z" /></g><g
           transform="translate(391.6309,140.7043)"
           id="g48"><path
             id="path50"
             style="fill:#941056;fill-opacity:1;fill-rule:nonzero;stroke:none"
             d="M 0,0 H -10.175 V 9.606 H 19.64 V 0 H 9.535 V -53.725 H 0 Z m 41.308,10.389 c 4.21,0 7.78,-1.482 10.721,-4.447 2.954,-2.965 4.425,-6.536 4.425,-10.71 v -34.584 c 0,-4.21 -1.483,-7.792 -4.448,-10.732 -2.954,-2.954 -6.522,-4.424 -10.698,-4.424 -4.21,0 -7.779,1.483 -10.71,4.447 -2.929,2.965 -4.387,6.535 -4.387,10.709 v 34.584 c 0,4.21 1.483,7.792 4.448,10.733 2.952,2.953 6.511,4.424 10.649,4.424 m 5.183,-14.991 c 0,1.519 -0.534,2.8 -1.59,3.867 -1.066,1.055 -2.347,1.589 -3.865,1.589 -1.519,0 -2.811,-0.534 -3.89,-1.589 -1.08,-1.067 -1.613,-2.348 -1.613,-3.867 v -34.63 c 0,-1.519 0.533,-2.8 1.613,-3.867 1.079,-1.055 2.371,-1.59 3.89,-1.59 1.518,0 2.799,0.535 3.865,1.59 1.056,1.067 1.59,2.348 1.59,3.867 z m 33.432,-49.835 c -4.21,0 -7.779,1.471 -10.709,4.4 -2.93,2.929 -4.387,6.487 -4.387,10.662 V 9.606 h 9.321 v -48.897 c 0,-1.519 0.534,-2.811 1.613,-3.879 1.079,-1.056 2.371,-1.589 3.89,-1.589 1.518,0 2.799,0.533 3.866,1.589 1.056,1.068 1.589,2.36 1.589,3.879 V 9.606 h 9.963 v -48.981 c 0,-4.246 -1.483,-7.816 -4.448,-10.709 -2.954,-2.906 -6.522,-4.353 -10.698,-4.353 M 118.67,9.606 c 5.325,0 9.238,-1.47 11.741,-4.401 2.194,-2.56 3.285,-6.13 3.285,-10.708 v -9.204 c 0,-4.482 -1.708,-8.266 -5.135,-11.373 l 7.08,-27.645 h -10.283 l -5.811,23.849 c -0.272,-0.011 -0.557,-0.011 -0.866,-0.011 h -5.55 v -23.838 h -9.535 V 9.606 Z m 5.704,-15.263 c 0,3.676 -1.826,5.514 -5.468,5.514 h -5.775 v -20.28 h 5.775 c 1.518,0 2.811,0.534 3.867,1.613 1.068,1.079 1.601,2.385 1.601,3.902 z m 47.819,-32.33 c 0.072,-4.412 -1.079,-8.184 -3.439,-11.315 -1.553,-2.122 -3.736,-3.616 -6.57,-4.494 -1.519,-0.475 -3.285,-0.712 -5.303,-0.712 -3.747,0 -6.842,0.925 -9.308,2.787 -2.052,1.518 -3.678,3.582 -4.875,6.191 -1.199,2.621 -1.897,5.609 -2.099,8.989 l 9.084,0.653 c 0.415,-3.688 1.388,-6.357 2.929,-8.017 1.152,-1.257 2.467,-1.851 3.95,-1.779 2.087,0.07 3.747,1.09 4.994,3.083 0.639,0.984 0.959,2.372 0.959,4.199 0,2.632 -1.197,5.241 -3.593,7.839 -1.887,1.778 -4.709,4.459 -8.48,8.041 -3.166,3.059 -5.408,5.811 -6.724,8.242 -1.412,2.729 -2.123,5.692 -2.123,8.896 0,5.763 1.933,10.127 5.812,13.092 2.394,1.791 5.359,2.681 8.905,2.681 3.405,0 6.323,-0.759 8.742,-2.277 1.886,-1.174 3.414,-2.823 4.577,-4.945 1.163,-2.111 1.862,-4.555 2.099,-7.318 l -9.168,-1.66 c -0.272,2.573 -1.02,4.589 -2.228,6.036 -0.878,1.031 -2.147,1.554 -3.807,1.554 -1.757,0 -3.085,-0.771 -3.997,-2.325 -0.748,-1.245 -1.115,-2.799 -1.115,-4.648 0,-2.895 1.245,-5.847 3.747,-8.837 0.949,-1.15 2.372,-2.503 4.258,-4.044 2.229,-1.862 3.7,-3.154 4.412,-3.889 2.36,-2.362 4.187,-4.685 5.468,-6.975 0.616,-1.079 1.102,-2.075 1.469,-2.988 0.914,-2.254 1.388,-4.269 1.424,-6.06" /></g></g></g></g></svg>