<?xml version="1.0" encoding="UTF-8"?><svg id="Layer_1" xmlns="http://www.w3.org/2000/svg" viewBox="0 0 350 100"><defs><style>.cls-1{fill:#fff;}</style></defs><g><path class="cls-1" d="M51.85,87.15c0-.82-.22-1.44-.66-1.88-.44-.43-1.24-.86-2.39-1.27-1.15-.41-2.03-.84-2.65-1.3-.61-.45-1.07-.97-1.37-1.55-.3-.58-.45-1.25-.45-1.99,0-1.29,.43-2.36,1.3-3.2,.86-.84,2-1.26,3.4-1.26,.96,0,1.81,.21,2.56,.64s1.33,1.02,1.73,1.79,.61,1.6,.61,2.51h-2.07c0-1.01-.24-1.79-.73-2.35-.49-.55-1.19-.83-2.1-.83-.83,0-1.48,.23-1.93,.7-.46,.46-.69,1.12-.69,1.96,0,.69,.25,1.27,.74,1.73s1.26,.88,2.29,1.25c1.61,.53,2.76,1.19,3.45,1.97,.69,.78,1.04,1.8,1.04,3.05,0,1.33-.43,2.39-1.29,3.18-.86,.8-2.03,1.2-3.52,1.2-.95,0-1.83-.21-2.63-.62-.8-.42-1.44-1-1.9-1.75-.46-.75-.69-1.62-.69-2.59h2.07c0,1.01,.28,1.8,.85,2.36,.56,.56,1.33,.84,2.31,.84,.91,0,1.59-.23,2.04-.7,.46-.46,.69-1.1,.69-1.9Z"/><path class="cls-1" d="M60.69,91.5c-1.51,0-2.67-.45-3.48-1.35s-1.22-2.23-1.24-3.97v-1.47c0-1.81,.4-3.23,1.19-4.26,.79-1.03,1.89-1.54,3.31-1.54s2.49,.45,3.19,1.36c.7,.91,1.06,2.32,1.08,4.23v1.3h-6.78v.28c0,1.3,.25,2.25,.74,2.84,.49,.59,1.2,.89,2.12,.89,.58,0,1.1-.11,1.54-.33,.45-.22,.86-.57,1.25-1.05l1.03,1.26c-.86,1.21-2.17,1.82-3.94,1.82Zm-.22-10.89c-.82,0-1.43,.28-1.83,.85s-.62,1.44-.67,2.63h4.78v-.27c-.05-1.15-.26-1.98-.62-2.47-.36-.49-.92-.74-1.66-.74Z"/><path class="cls-1" d="M75.83,88.26l2.3-9.13h2.02l-3.6,12.15h-1.48l-3.65-12.15h2.02l2.39,9.13Z"/><path class="cls-1" d="M81.64,84.64c0-1.77,.43-3.17,1.29-4.19,.86-1.03,1.99-1.54,3.4-1.54s2.54,.5,3.4,1.5c.86,1,1.3,2.37,1.32,4.1v1.28c0,1.76-.43,3.15-1.28,4.18-.85,1.03-1.99,1.54-3.41,1.54s-2.54-.5-3.39-1.49c-.85-1-1.29-2.34-1.32-4.04v-1.33Zm1.99,1.15c0,1.25,.25,2.23,.74,2.95,.49,.71,1.15,1.07,1.98,1.07,1.75,0,2.65-1.26,2.71-3.8v-1.37c0-1.24-.25-2.23-.74-2.95-.49-.72-1.16-1.08-1.99-1.08s-1.47,.36-1.96,1.08c-.49,.72-.74,1.7-.74,2.94v1.16Z"/><path class="cls-1" d="M98.62,80.99c-.28-.05-.58-.08-.9-.08-1.02,0-1.73,.56-2.13,1.67v8.69h-1.99v-12.15h1.93l.03,1.24c.53-.97,1.28-1.46,2.26-1.46,.31,0,.58,.05,.79,.16v1.93Z"/><path class="cls-1" d="M104.73,91.5c-1.51,0-2.67-.45-3.48-1.35s-1.22-2.23-1.24-3.97v-1.47c0-1.81,.4-3.23,1.19-4.26,.79-1.03,1.89-1.54,3.31-1.54s2.49,.45,3.19,1.36c.7,.91,1.06,2.32,1.08,4.23v1.3h-6.78v.28c0,1.3,.25,2.25,.74,2.84,.49,.59,1.2,.89,2.12,.89,.58,0,1.1-.11,1.54-.33,.45-.22,.86-.57,1.25-1.05l1.03,1.26c-.86,1.21-2.17,1.82-3.94,1.82Zm-.22-10.89c-.82,0-1.43,.28-1.83,.85s-.62,1.44-.67,2.63h4.78v-.27c-.05-1.15-.26-1.98-.62-2.47-.36-.49-.92-.74-1.66-.74Z"/><path class="cls-1" d="M117.06,88.17c0-.43-.16-.79-.48-1.1-.32-.31-.94-.67-1.86-1.08-1.07-.44-1.82-.82-2.26-1.13-.44-.31-.77-.67-.98-1.07-.22-.4-.33-.88-.33-1.43,0-.99,.36-1.81,1.08-2.46,.72-.66,1.65-.98,2.77-.98,1.18,0,2.13,.34,2.85,1.03,.72,.69,1.08,1.57,1.08,2.65h-1.98c0-.55-.18-1.01-.55-1.4s-.83-.58-1.4-.58-1.04,.15-1.38,.45c-.33,.3-.5,.71-.5,1.21,0,.4,.12,.73,.36,.97,.24,.25,.83,.57,1.76,.97,1.48,.58,2.48,1.14,3.01,1.69,.53,.55,.8,1.25,.8,2.1,0,1.06-.36,1.9-1.09,2.54-.73,.63-1.7,.95-2.92,.95s-2.29-.36-3.08-1.09c-.79-.73-1.18-1.65-1.18-2.76h2c.02,.67,.23,1.2,.62,1.58s.94,.57,1.64,.57c.66,0,1.16-.15,1.5-.44s.52-.69,.52-1.2Z"/><path class="cls-1" d="M126.8,83.24l.81-8.31h7.92v2.72h-5.31l-.29,3.5c.61-.41,1.25-.62,1.9-.62,1.35,0,2.39,.48,3.12,1.44,.73,.96,1.09,2.31,1.09,4.07,0,1.64-.43,2.96-1.3,3.96-.87,1-2.03,1.5-3.48,1.5-.86,0-1.66-.2-2.39-.61s-1.31-.98-1.73-1.7c-.42-.73-.64-1.55-.65-2.47h3.14c.05,.68,.22,1.21,.51,1.58,.28,.38,.65,.56,1.1,.56,.52,0,.93-.25,1.21-.76,.28-.5,.43-1.26,.43-2.26,0-.94-.17-1.66-.51-2.13-.34-.48-.82-.72-1.43-.72s-1.06,.21-1.39,.62l-.2,.28-2.53-.65Z"/><path class="cls-1" d="M146.49,85.1h1.39v2.64h-1.39v3.54h-3.18v-3.54h-5.41l-.15-2.05,5.55-10.76h3.19v10.17Zm-5.65,0h2.47v-5.47l-.07,.12-2.4,5.35Z"/><path class="cls-1" d="M160.91,91.28c-.09-.19-.18-.5-.27-.94-.57,.78-1.34,1.17-2.31,1.17s-1.86-.34-2.53-1.01c-.67-.67-1-1.55-1-2.62,0-1.27,.41-2.26,1.22-2.95,.81-.7,1.98-1.05,3.51-1.07h.97v-.98c0-.55-.09-.93-.28-1.16s-.46-.34-.82-.34c-.79,0-1.19,.46-1.19,1.39h-3.18c0-1.12,.42-2.05,1.26-2.78,.84-.73,1.91-1.09,3.19-1.09s2.36,.35,3.09,1.04c.73,.69,1.09,1.68,1.09,2.97v5.72c.02,1.05,.16,1.87,.45,2.46v.19h-3.2Zm-1.88-2.27c.35,0,.65-.07,.9-.21,.25-.14,.43-.31,.55-.5v-2.53h-.76c-.54,0-.96,.17-1.27,.52-.31,.34-.47,.8-.47,1.38,0,.9,.35,1.35,1.06,1.35Z"/><path class="cls-1" d="M168.87,79.13l.09,1.2c.72-.95,1.66-1.43,2.82-1.43,2.09,0,3.16,1.46,3.22,4.39v7.99h-3.19v-7.75c0-.69-.1-1.19-.31-1.5-.21-.31-.57-.47-1.08-.47-.58,0-1.03,.3-1.35,.89v8.83h-3.19v-12.15h2.99Z"/><path class="cls-1" d="M180.27,79.13l.09,1.12c.71-.9,1.65-1.35,2.82-1.35s2.07,.55,2.57,1.64c.7-1.09,1.69-1.64,2.98-1.64,2.13,0,3.22,1.47,3.27,4.41v7.96h-3.18v-7.76c0-.7-.1-1.21-.29-1.5-.19-.3-.52-.45-.99-.45-.59,0-1.03,.36-1.33,1.09l.02,.38v8.24h-3.18v-7.74c0-.7-.09-1.2-.28-1.51-.19-.31-.52-.47-1-.47-.55,0-.98,.3-1.3,.89v8.83h-3.18v-12.15h2.98Z"/><path class="cls-1" d="M199.25,91.5c-1.63,0-2.91-.49-3.82-1.46-.91-.97-1.37-2.37-1.37-4.18v-.97c0-1.92,.42-3.4,1.26-4.44,.84-1.04,2.04-1.56,3.6-1.56s2.68,.49,3.45,1.46,1.16,2.42,1.18,4.33v1.56h-6.32c.04,.9,.24,1.56,.6,1.98,.35,.42,.89,.63,1.63,.63,1.06,0,1.95-.36,2.66-1.09l1.25,1.92c-.39,.54-.95,.98-1.7,1.31-.74,.33-1.55,.5-2.41,.5Zm-2-7.46h3.18v-.29c-.02-.73-.13-1.28-.36-1.65-.22-.37-.61-.56-1.17-.56s-.96,.2-1.21,.6c-.25,.4-.4,1.03-.44,1.91Z"/><path class="cls-1" d="M208.69,91.28h-3.19v-17.25h3.19v17.25Z"/><path class="cls-1" d="M210.72,84.83c0-1.99,.34-3.48,1.01-4.46,.67-.98,1.66-1.47,2.94-1.47,.94,0,1.71,.4,2.34,1.21v-6.09h3.2v17.25h-2.89l-.15-1.24c-.65,.97-1.49,1.46-2.52,1.46-1.27,0-2.24-.49-2.91-1.46-.67-.97-1.01-2.4-1.03-4.29v-.92Zm3.19,.8c0,1.2,.13,2.04,.38,2.51,.25,.47,.69,.71,1.29,.71s1.1-.28,1.43-.84v-5.55c-.31-.6-.79-.9-1.42-.9-.58,0-1.01,.24-1.28,.71s-.4,1.31-.4,2.52v.84Z"/><path class="cls-1" d="M227.45,91.5c-1.63,0-2.91-.49-3.82-1.46-.91-.97-1.37-2.37-1.37-4.18v-.97c0-1.92,.42-3.4,1.26-4.44,.84-1.04,2.04-1.56,3.6-1.56s2.68,.49,3.45,1.46,1.16,2.42,1.18,4.33v1.56h-6.32c.04,.9,.24,1.56,.6,1.98,.35,.42,.89,.63,1.63,.63,1.06,0,1.95-.36,2.66-1.09l1.25,1.92c-.39,.54-.95,.98-1.7,1.31-.74,.33-1.55,.5-2.41,.5Zm-2-7.46h3.18v-.29c-.02-.73-.13-1.28-.36-1.65-.22-.37-.61-.56-1.17-.56s-.96,.2-1.21,.6c-.25,.4-.4,1.03-.44,1.91Z"/><path class="cls-1" d="M236.89,91.28h-3.19v-17.25h3.19v17.25Z"/><path class="cls-1" d="M244.72,88.02c0-.27-.13-.52-.39-.75-.26-.23-.83-.54-1.72-.93-1.31-.53-2.21-1.08-2.7-1.65-.49-.57-.74-1.28-.74-2.12,0-1.06,.38-1.94,1.15-2.63,.77-.69,1.78-1.04,3.05-1.04,1.33,0,2.4,.34,3.2,1.03,.8,.69,1.2,1.61,1.2,2.77h-3.18c0-.99-.41-1.48-1.23-1.48-.34,0-.61,.11-.83,.31-.22,.21-.33,.5-.33,.88,0,.27,.12,.51,.36,.71,.24,.21,.8,.5,1.7,.88,1.29,.48,2.21,1.01,2.75,1.6s.8,1.35,.8,2.29c0,1.09-.41,1.96-1.22,2.62-.82,.66-1.89,.99-3.21,.99-.89,0-1.68-.17-2.36-.52-.68-.35-1.21-.83-1.6-1.45-.39-.62-.58-1.29-.58-2.01h3.02c.02,.55,.14,.97,.39,1.25,.24,.28,.64,.42,1.2,.42,.85,0,1.28-.39,1.28-1.16Z"/><path class="cls-1" d="M254.7,91.5c-1.63,0-2.91-.49-3.82-1.46-.91-.97-1.37-2.37-1.37-4.18v-.97c0-1.92,.42-3.4,1.26-4.44,.84-1.04,2.04-1.56,3.6-1.56s2.68,.49,3.45,1.46,1.16,2.42,1.18,4.33v1.56h-6.32c.04,.9,.24,1.56,.6,1.98,.35,.42,.89,.63,1.63,.63,1.06,0,1.95-.36,2.66-1.09l1.25,1.92c-.39,.54-.95,.98-1.7,1.31-.74,.33-1.55,.5-2.41,.5Zm-2-7.46h3.18v-.29c-.02-.73-.13-1.28-.36-1.65-.22-.37-.61-.56-1.17-.56s-.96,.2-1.21,.6c-.25,.4-.4,1.03-.44,1.91Z"/><path class="cls-1" d="M266.79,82.19l-1.06-.09c-.87,0-1.46,.38-1.76,1.15v8.03h-3.19v-12.15h3l.09,1.31c.5-1.03,1.19-1.54,2.08-1.54,.36,0,.65,.05,.88,.15l-.03,3.14Z"/><path class="cls-1" d="M276,80.37c.76-.98,1.72-1.47,2.9-1.47,2.15,0,3.24,1.43,3.27,4.3v8.08h-1.98v-7.99c0-.95-.16-1.63-.48-2.03-.32-.4-.79-.6-1.43-.6-.49,0-.94,.17-1.33,.49-.39,.33-.71,.76-.95,1.29v8.83h-1.99v-17.25h1.99v6.34Z"/><path class="cls-1" d="M289.47,91.5c-1.51,0-2.67-.45-3.48-1.35s-1.22-2.23-1.24-3.97v-1.47c0-1.81,.4-3.23,1.19-4.26s1.89-1.54,3.31-1.54,2.49,.45,3.19,1.36c.7,.91,1.06,2.32,1.08,4.23v1.3h-6.78v.28c0,1.3,.25,2.25,.74,2.84,.49,.59,1.2,.89,2.12,.89,.58,0,1.1-.11,1.54-.33s.86-.57,1.25-1.05l1.03,1.26c-.86,1.21-2.17,1.82-3.94,1.82Zm-.22-10.89c-.82,0-1.43,.28-1.83,.85s-.62,1.44-.67,2.63h4.78v-.27c-.05-1.15-.26-1.98-.62-2.47s-.92-.74-1.66-.74Z"/><path class="cls-1" d="M300.91,80.99c-.28-.05-.58-.08-.9-.08-1.02,0-1.73,.56-2.13,1.67v8.69h-1.99v-12.15h1.93l.03,1.24c.53-.97,1.28-1.46,2.26-1.46,.31,0,.58,.05,.79,.16v1.93Z"/><path class="cls-1" d="M304.29,89.04c.37,0,.66,.11,.85,.34,.19,.23,.29,.51,.29,.85s-.1,.62-.29,.84c-.19,.22-.47,.33-.85,.33s-.67-.11-.85-.33c-.19-.22-.28-.5-.28-.84s.09-.62,.28-.85c.19-.23,.47-.34,.85-.34Zm.84-2.38h-1.79l-.15-11.74h2.09l-.16,11.74Z"/></g><path class="cls-1" d="M39.45,9.17l5.1,15.69c.38,1.16,1.45,1.94,2.67,1.94h16.5c2.72,0,3.85,3.48,1.65,5.07l-13.35,9.7c-.98,.71-1.39,1.98-1.02,3.14l5.1,15.69c.84,2.58-2.12,4.73-4.32,3.14l-13.35-9.7c-.98-.71-2.31-.71-3.3,0l-13.35,9.7c-2.2,1.6-5.16-.55-4.32-3.14l5.1-15.69c.38-1.16-.04-2.42-1.02-3.14l-13.35-9.7c-2.2-1.6-1.07-5.07,1.65-5.07H26.35c1.22,0,2.29-.78,2.67-1.94l5.1-15.69c.84-2.58,4.5-2.58,5.34,0Z"/><path class="cls-1" d="M108.48,9.17l5.1,15.69c.38,1.16,1.45,1.94,2.67,1.94h16.5c2.72,0,3.85,3.48,1.65,5.07l-13.35,9.7c-.98,.71-1.39,1.98-1.02,3.14l5.1,15.69c.84,2.58-2.12,4.73-4.32,3.14l-13.35-9.7c-.98-.71-2.31-.71-3.3,0l-13.35,9.7c-2.2,1.6-5.16-.55-4.32-3.14l5.1-15.69c.38-1.16-.04-2.42-1.02-3.14l-13.35-9.7c-2.2-1.6-1.07-5.07,1.65-5.07h16.5c1.22,0,2.29-.78,2.67-1.94l5.1-15.69c.84-2.58,4.5-2.58,5.34,0Z"/><path class="cls-1" d="M177.5,9.17l5.1,15.69c.38,1.16,1.45,1.94,2.67,1.94h16.5c2.72,0,3.85,3.48,1.65,5.07l-13.35,9.7c-.98,.71-1.39,1.98-1.02,3.14l5.1,15.69c.84,2.58-2.12,4.73-4.32,3.14l-13.35-9.7c-.98-.71-2.31-.71-3.3,0l-13.35,9.7c-2.2,1.6-5.16-.55-4.32-3.14l5.1-15.69c.38-1.16-.04-2.42-1.02-3.14l-13.35-9.7c-2.2-1.6-1.07-5.07,1.65-5.07h16.5c1.22,0,2.29-.78,2.67-1.94l5.1-15.69c.84-2.58,4.5-2.58,5.34,0Z"/><path class="cls-1" d="M246.53,9.17l5.1,15.69c.38,1.16,1.45,1.94,2.67,1.94h16.5c2.72,0,3.85,3.48,1.65,5.07l-13.35,9.7c-.98,.71-1.39,1.98-1.02,3.14l5.1,15.69c.84,2.58-2.12,4.73-4.32,3.14l-13.35-9.7c-.98-.71-2.31-.71-3.3,0l-13.35,9.7c-2.2,1.6-5.16-.55-4.32-3.14l5.1-15.69c.38-1.16-.04-2.42-1.02-3.14l-13.35-9.7c-2.2-1.6-1.07-5.07,1.65-5.07h16.5c1.22,0,2.29-.78,2.67-1.94l5.1-15.69c.84-2.58,4.5-2.58,5.34,0Z"/><path class="cls-1" d="M339.82,26.8h-16.5c-1.22,0-2.29-.78-2.67-1.94l-5.1-15.69c-.42-1.29-1.54-1.94-2.67-1.94h0c-1.12,0-2.25,.65-2.67,1.94l-4.09,12.6-1,3.09c-.05,.14-.1,.28-.17,.42-.07,.13-.15,.26-.23,.38-.52,.71-1.35,1.15-2.26,1.15h-16.5c-2.55,0-3.7,3.06-2.02,4.75,.11,.11,.24,.22,.37,.32l13.35,9.7c.98,.71,1.39,1.98,1.02,3.14l-5.1,15.69c-.07,.22-.11,.44-.13,.65,0,.05,0,.1-.01,.15,0,.21,0,.41,.04,.6,0,.01,0,.03,.01,.04,.04,.18,.1,.36,.17,.52,.02,.04,.04,.08,.06,.12,.08,.17,.18,.33,.3,.48,.01,.02,.03,.03,.04,.05,.11,.13,.23,.25,.36,.37,.03,.03,.07,.06,.1,.09,.15,.12,.3,.22,.47,.3,.03,.01,.05,.02,.08,.03,.15,.07,.31,.13,.47,.17,.04,.01,.08,.02,.13,.03,.18,.04,.37,.07,.56,.07,.01,0,.02,0,.03,0,.07,0,.13-.01,.2-.02,.06,0,.12,0,.18-.01,.08-.01,.17-.03,.25-.06,.06-.01,.11-.02,.17-.04,.09-.03,.19-.07,.28-.11,.05-.02,.09-.04,.14-.06,.14-.07,.28-.15,.41-.25l13.35-9.7c.27-.2,.58-.34,.89-.43,.24-.07,.48-.1,.72-.11,.01,0,.02,0,.03,0,.58,0,1.16,.18,1.65,.54l13.35,9.7c.52,.38,1.09,.55,1.64,.55,1.75,0,3.32-1.72,2.68-3.68l-5.1-15.69c-.38-1.16,.04-2.42,1.02-3.14l13.35-9.7c2.2-1.6,1.07-5.07-1.65-5.07Zm-13.46,12.34c-2.04,1.48-2.89,4.09-2.11,6.49l4.91,15.12-12.86-9.34c-1-.73-2.18-1.11-3.41-1.11h0V10.67h0s4.91,15.12,4.91,15.12c.78,2.4,3,4.01,5.52,4.01h15.9s-12.86,9.34-12.86,9.34Z"/></svg>