<svg viewBox="0 0 435.5 185.5">
                                    <g id="rejsegarantifonden" viewBox="0 0 435.5 185.5">

            <path fill="#FFFFFF" d="M270.3,56.8c-2.5-3.6-5.3-6.8-8.2-9.9c-2-1.9-4-3.7-6-5.4c-5.4-4.3-11.3-7.8-17.2-10.2
	c-5.6-2.2-11.2-3.6-16.9-4.2c-1.7-0.2-3.6-0.2-5.3-0.3c-1.7,0-3.6,0.2-5.4,0.3c-5.9,0.5-11.6,1.9-17.2,4c-6,2.3-11.9,5.7-17.5,10.1
	c-2.2,1.7-4.3,3.7-6.5,5.7c-2.8,2.9-5.4,6-7.8,9.3C156.9,63.9,153,72.6,151,82l0.2,0.2c0,1.4,2.2,2.3,4.7,1.2c1.6-0.8,3.7-1.4,6.4-2
	c0.3-0.2,0.6-0.2,1.1-0.3c-0.2,0.8-0.3,1.5-0.5,2.3c0.3,1.1,3.3,1.5,4.3,0c0.2-1.1,0.5-2.2,0.6-3.3c1.2-0.3,2.5-0.5,3.7-0.6
	c1.7-0.3,3.4-0.6,5-0.8c0.8-0.2,1.6-0.3,2.3-0.5c-0.2,1.2-0.3,2.3-0.5,3.4c0.6,1.4,2.6,2,4.2,0.3c0.3-1.4,0.5-2.8,0.8-4.2
	c3.6-0.5,7-0.8,10.7-1.1c2-0.2,4.2-0.3,6.2-0.5c0,1.2-0.2,2.6-0.3,4c0.2,1.2,3.3,2.5,4.5,0c0.2-1.4,0.2-2.8,0.3-4.2
	c2.2-0.2,4.3-0.2,6.5-0.3c1.9,0,3.7,0,5.4,0s3.6,0,5.3,0.2c2.2,0,4.3,0,6.5,0.2c0.2,1.4,0.2,2.8,0.3,4.2c1.2,2.5,4.3,1.2,4.5,0
	c-0.2-1.4-0.3-2.6-0.3-4c1.9,0.2,3.9,0.3,5.9,0.5c3.4,0.3,6.8,0.6,10.2,1.1c0.2,1.2,0.5,2.6,0.6,4c1.6,1.7,3.6,1.1,4.2-0.3
	c0-1.1-0.3-2.2-0.5-3.1c0.9,0,1.7,0.2,2.6,0.3c1.5,0.2,2.9,0.5,4.5,0.8c1.5,0.2,3.1,0.5,4.3,0.8c0.3,1.1,0.5,2.2,0.8,3.3
	c0.9,1.6,4,1.1,4.2-0.2c0-0.6-0.2-1.4-0.3-2.2l0.8,0.2c2.5,0.6,4.5,1.4,5.9,2c2.6,1.1,4.7,0.2,4.8-1.2V82
	C279.1,72.9,275.4,64.2,270.3,56.8z M238.8,38.9c4.3,2.9,8.5,6.7,12.1,11c1.7,2.2,3.6,4.7,5.1,7.3c0,0.2,0.2,0.3,0.3,0.6l-0.3-0.2
	c-3.3-1.1-6.7-2-10.2-2.8c-1.6-3.1-3.3-6-5.1-8.7c-0.6-0.9-1.2-1.7-1.9-2.5c-3.3-4.2-6.7-7.4-10.4-10.1
	C232.1,35.1,235.5,36.8,238.8,38.9z M216.6,37.5c1.7,0.3,3.4,3.9,5.3,8.8c0.2,0.5,0.5,0.9,0.6,1.6c0.5,1.2,0.9,2.6,1.2,4
	c-0.6-0.2-1.2-0.2-1.9-0.2c-1.7,0-3.6-0.2-5.3-0.2s-3.6,0-5.4,0.2c-0.6,0-1.1,0-1.7,0c0.5-1.2,0.8-2.6,1.2-4
	c0.2-0.5,0.3-0.9,0.5-1.4C213.4,39.7,215.1,37.2,216.6,37.5z M194,38.8c3.3-2.2,6.8-4,10.4-5.4c-3.7,2.5-7.1,5.7-10.4,9.8
	c-0.9,0.9-1.7,2-2.5,3.1c-1.9,2.6-3.6,5.6-5.1,8.7c-3.4,0.8-6.7,1.6-9.9,2.6l-0.2,0.2l0.2-0.3c1.7-2.8,3.6-5.4,5.4-7.8
	C185.5,45.3,189.5,41.7,194,38.8z M164.2,76.5c-0.6,0.2-1.4,0.3-2,0.5c-2,0.5-3.7,0.9-5.4,1.4c0-0.2,0-0.3,0-0.6
	c0-0.3,0-0.6,0.2-0.9c0.2-0.9,0.5-1.9,0.9-2.8c0.8-1.7,2.3-3.3,4.3-4.8c1.5-1.2,3.4-2.3,5.4-3.4C166.2,69.2,165.1,72.7,164.2,76.5z
	 M162.3,63.9c2.9-5.1,6.5-9.8,10.7-14c1.1-1.1,2.3-2.2,3.4-3.3c2.3-2,4.8-3.9,7.4-5.6c-1.9,1.9-3.6,3.7-5.3,5.7
	c-0.8,0.8-1.4,1.7-2.2,2.6c-2.3,3.3-4.3,6.7-6.2,10.4C167.3,61.1,164.7,62.5,162.3,63.9z M179.7,74c-1.1,0.2-2.2,0.3-3.3,0.5
	c-1.9,0.3-3.9,0.5-5.7,0.8c-0.6,0.2-1.2,0.3-1.9,0.5c1.2-4.3,2.8-8.5,4.7-12.6c0.2,0,0.5-0.2,0.8-0.3c0.8-0.3,1.6-0.5,2.2-0.8
	c2.5-0.8,5.1-1.6,7.8-2.3C182.4,64.2,180.8,69,179.7,74z M200.6,72.1c-2.2,0.2-4.5,0.3-6.7,0.5c-3.4,0.2-6.7,0.5-9.8,0.9
	c1.2-5.4,2.9-10.4,5.1-15c1.6-0.3,3.1-0.5,4.7-0.8c3.1-0.6,6.4-0.9,9.6-1.2C202.4,61.3,201.4,66.4,200.6,72.1z M194,53.4
	c-0.8,0.2-1.4,0.3-2.2,0.5c0.6-1.2,1.4-2.3,2.2-3.4c0.3-0.6,0.6-1.2,1.1-1.7c4.5-6.4,10.1-11,16.1-14.3c0.6-0.3,1.1-0.6,1.7-0.9
	c-0.6,0.8-1.2,1.7-1.7,2.6c-2.3,3.9-4,8.8-4.5,10.2c-0.6,1.9-1.2,3.7-1.9,5.7C201.1,52.4,197.5,52.9,194,53.4z M221.9,71.8
	c-1.7,0-3.6,0-5.3,0s-3.6,0-5.4,0c-2,0-4,0.2-6,0.2c0.8-5.9,1.9-11,3.1-16c1.1,0,2,0,2.9-0.2c1.9,0,3.7,0,5.4,0s3.6,0,5.3,0.2
	c1.1,0,2.2,0,3.1,0.2c1.2,4.8,2.3,9.9,2.9,15.8C225.9,72,223.9,71.8,221.9,71.8z M228.2,52.3c-0.6-2-1.2-4-1.9-5.9
	c-1.4-3.7-2.8-7-4.5-9.9c-0.6-1.1-1.2-2-1.9-2.9c0.6,0.3,1.2,0.6,1.9,0.9c5.7,3.3,10.9,8.1,15.2,14.3c0.6,0.8,1.1,1.6,1.7,2.5
	c0.5,0.8,1.1,1.7,1.6,2.6c-0.5-0.2-1.1-0.2-1.6-0.3C235.4,52.9,231.8,52.6,228.2,52.3z M238.8,72.6c-2.2-0.2-4.2-0.3-6.4-0.3
	c-0.8-5.9-1.7-11-2.9-15.8c3.1,0.3,6.2,0.8,9.3,1.4c1.4,0.2,2.6,0.5,4,0.8c2.2,4.5,3.9,9.5,5.3,14.9C245,73.2,241.9,72.9,238.8,72.6
	z M261.3,75.2c-1.7-0.2-3.6-0.5-5.3-0.8c-1.2-0.2-2.3-0.3-3.4-0.5c-1.1-5-2.6-9.8-4.5-14.1c2.6,0.6,5.3,1.4,7.9,2.3
	c0.5,0.2,1.1,0.5,1.7,0.6c0.5,0.2,1.1,0.5,1.5,0.6c1.9,3.9,3.4,8.1,4.5,12.2C263,75.5,262.2,75.4,261.3,75.2z M262.5,60.2
	c-1.9-3.9-4.2-7.4-6.5-10.7c-0.6-0.8-1.2-1.6-1.9-2.3c-1.6-1.9-3.1-3.6-4.8-5.1c2.3,1.6,4.5,3.3,6.7,5.1c0.9,0.9,2,1.9,2.9,2.8
	c4.2,4.2,7.9,9,11,14.1C267.8,62.7,265.3,61.4,262.5,60.2z M275.2,78.3c-1.5-0.5-3.1-0.9-5-1.2c-0.6-0.2-1.2-0.3-1.9-0.5
	c-0.8-3.6-1.9-7.1-3.3-10.5c1.9,1.1,3.6,2.2,5.1,3.3c3.1,2.6,5,5.4,5,8.4C275.2,78,275.2,78.2,275.2,78.3z"></path>
            <g>
                <path fill="#FFFFFF" d="M51.4,109.5v8.7c0,0.4,0.1,0.7,0.3,0.9c0.2,0.2,0.5,0.4,1,0.5v0.6h-8.2v-0.6c0.5-0.1,0.8-0.3,1-0.5
		s0.3-0.5,0.3-0.9V96c0-0.4-0.1-0.7-0.3-0.9c-0.2-0.2-0.5-0.4-1-0.5V94h16.4c2,0,3.6,0.1,4.8,0.3c1.2,0.2,2.2,0.6,3.1,1.2
		c1,0.7,1.8,1.6,2.3,2.7s0.7,2.3,0.7,3.5c0,4.3-2.4,6.8-7.1,7.5l5.1,7.3c0.9,1.3,1.6,2.1,2,2.5s0.9,0.6,1.5,0.6v0.6h-9.5v-0.6
		c0.7-0.1,1-0.3,1-0.7c0-0.2-0.3-0.8-0.9-1.7l-5.3-7.7C58.6,109.5,51.4,109.5,51.4,109.5z M51.4,105.2h8.8c1.3,0,2.2,0,2.8-0.1
		c0.5-0.1,1-0.2,1.5-0.5c1-0.5,1.5-1.5,1.5-2.8c0-1.4-0.5-2.3-1.5-2.8c-0.5-0.3-1-0.4-1.5-0.5s-1.4-0.1-2.8-0.1h-8.8V105.2z"></path>
                <path fill="#FFFFFF" d="M259.7,109.5v8.7c0,0.4,0.1,0.7,0.3,0.9c0.2,0.2,0.5,0.4,1,0.5v0.6h-8.2v-0.6c0.5-0.1,0.8-0.3,1-0.5
		s0.3-0.5,0.3-0.9V96c0-0.4-0.1-0.7-0.3-0.9c-0.2-0.2-0.5-0.4-1-0.5V94h16.4c2,0,3.6,0.1,4.8,0.3c1.2,0.2,2.2,0.6,3.1,1.2
		c1,0.7,1.8,1.6,2.3,2.7s0.7,2.3,0.7,3.5c0,4.3-2.4,6.8-7.1,7.5l5.1,7.3c0.9,1.3,1.6,2.1,2,2.5s0.9,0.6,1.5,0.6v0.6h-9.5v-0.6
		c0.7-0.1,1-0.3,1-0.7c0-0.2-0.3-0.8-0.9-1.7l-5.3-7.7C266.9,109.5,259.7,109.5,259.7,109.5z M259.7,105.2h8.8c1.3,0,2.2,0,2.8-0.1
		c0.5-0.1,1-0.2,1.5-0.5c1-0.5,1.5-1.5,1.5-2.8c0-1.4-0.5-2.3-1.5-2.8c-0.5-0.3-1-0.4-1.5-0.5s-1.4-0.1-2.8-0.1h-8.8V105.2z"></path>
                <path fill="#FFFFFF" d="M83.2,108.7v7.2h16.9c0.4,0,0.7-0.1,0.9-0.3c0.2-0.2,0.4-0.5,0.5-1h0.6v6.8h-0.6c-0.1-0.5-0.3-0.8-0.5-1
		s-0.5-0.3-0.9-0.3H76.2v-0.6c0.5-0.1,0.8-0.3,1-0.5s0.3-0.5,0.3-0.9V96c0-0.4-0.1-0.7-0.3-0.9c-0.2-0.2-0.5-0.4-1-0.5V94h23.4
		c0.4,0,0.7-0.1,0.9-0.3c0.2-0.2,0.4-0.5,0.5-1h0.6v6.8H101c-0.1-0.5-0.3-0.8-0.5-1s-0.5-0.3-0.9-0.3H83.2v6.2h10.7
		c0.4,0,0.7-0.1,0.9-0.3c0.2-0.2,0.4-0.5,0.5-1h0.6v6.6h-0.6c-0.1-0.4-0.3-0.8-0.5-1s-0.5-0.3-0.9-0.3H83.2V108.7z"></path>
                <path fill="#FFFFFF" d="M103.9,119.2l2.5-6.7l0.6,0.2c0,0.2,0,0.3,0,0.4c0,0.5,0.3,1,1,1.5c0.7,0.4,1.6,0.8,2.8,1.1
		c1.2,0.3,2.3,0.5,3.3,0.5c1.7,0,3-0.4,3.8-1.2c0.4-0.4,0.7-0.9,0.8-1.4s0.2-1.4,0.2-2.5V96c0-0.4-0.1-0.7-0.3-0.9
		c-0.2-0.2-0.5-0.4-1-0.5V94h8.2v0.6c-0.5,0.1-0.8,0.3-1,0.5s-0.3,0.5-0.3,0.9v15.5c0,2.5-0.4,4.4-1.1,5.5c-0.7,1.2-1.8,2.1-3.3,2.8
		c-1.5,0.6-3.2,1-5.1,1c-1.1,0-2.1-0.1-2.9-0.2s-2.2-0.5-4-1c-1.2-0.3-2-0.5-2.5-0.5c-0.4,0-0.8,0.2-1.2,0.5L103.9,119.2z"></path>
                <path fill="#FFFFFF" d="M154.4,96.2l-3.1,6.2l-0.5-0.3c0-0.1,0-0.2,0-0.3c0-0.4-0.4-0.9-1.1-1.4c-2.3-1.6-5-2.4-8-2.4
		c-1.4,0-2.6,0.2-3.6,0.5c-0.8,0.3-1.4,0.6-1.8,1.2c-0.5,0.5-0.7,1.1-0.7,1.7c0,1,0.6,1.7,1.8,2c0.6,0.2,1.9,0.4,4,0.6l3,0.3
		c1.8,0.2,3.2,0.5,4.4,0.8c1.1,0.3,2.1,0.8,3,1.4s1.6,1.5,2.1,2.5s0.8,2.1,0.8,3.3c0,1.8-0.6,3.5-1.8,4.9c-1.1,1.3-2.8,2.3-5,2.9
		c-1.7,0.5-3.5,0.7-5.4,0.7c-3.5,0-6.9-0.8-10.3-2.5c-0.7-0.3-1.1-0.5-1.3-0.5s-0.4,0.1-0.8,0.4l-0.6-0.3l2.8-6.4l0.6,0.3
		c0,0.1,0,0.2,0,0.3c0,0.6,0.3,1.1,0.8,1.6c0.8,0.7,2.1,1.4,3.9,1.9c1.7,0.5,3.4,0.8,5,0.8c1.7,0,3.2-0.3,4.4-0.9
		c0.7-0.3,1.2-0.7,1.6-1.3s0.6-1.1,0.6-1.7c0-0.9-0.5-1.5-1.4-1.9c-0.7-0.3-2-0.5-4-0.7l-3-0.3c-2-0.2-3.4-0.4-4.2-0.6
		s-1.6-0.5-2.5-0.9c-1.2-0.6-2.1-1.4-2.8-2.6c-0.6-1-0.9-2.2-0.9-3.6c0-2.2,0.8-4.1,2.3-5.5c2-1.9,5-2.9,9-2.9
		c1.7,0,3.2,0.2,4.7,0.5c1.4,0.3,3.3,1,5.4,1.9c0.7,0.3,1.2,0.4,1.4,0.4c0.3,0,0.6-0.1,0.9-0.4L154.4,96.2z"></path>
                <path fill="#FFFFFF" d="M165.3,108.7v7.2h16.9c0.4,0,0.7-0.1,0.9-0.3c0.2-0.2,0.4-0.5,0.5-1h0.6v6.8h-0.6c-0.1-0.5-0.3-0.8-0.5-1
		s-0.5-0.3-0.9-0.3h-23.8v-0.6c0.5-0.1,0.8-0.3,1-0.5s0.3-0.5,0.3-0.9V96c0-0.4-0.1-0.7-0.3-0.9c-0.2-0.2-0.5-0.4-1-0.5V94h23.4
		c0.4,0,0.7-0.1,0.9-0.3c0.2-0.2,0.4-0.5,0.5-1h0.6v6.8h-0.6c-0.1-0.5-0.3-0.8-0.5-1s-0.5-0.3-0.9-0.3h-16.4v6.2h10.7
		c0.4,0,0.7-0.1,0.9-0.3c0.2-0.2,0.4-0.5,0.5-1h0.6v6.6h-0.6c-0.1-0.4-0.3-0.8-0.5-1s-0.5-0.3-0.9-0.3h-10.8L165.3,108.7
		L165.3,108.7z"></path>
                <path fill="#FFFFFF" d="M211.6,110.8h-6.5c-0.4,0-0.7,0.1-0.9,0.3c-0.2,0.2-0.4,0.5-0.5,1h-0.6V106h0.6c0.1,0.5,0.3,0.8,0.5,1
		s0.5,0.3,0.9,0.3h12.4v0.6c-0.5,0.1-0.8,0.3-1,0.5s-0.3,0.5-0.3,0.9v5.4c0,0.4,0.1,0.7,0.3,0.9c0.2,0.2,0.5,0.4,1,0.5v0.5
		c-5,2.8-9.8,4.3-14.5,4.3c-4.2,0-7.7-1-10.4-3c-3.4-2.5-5.1-6.1-5.1-10.6c0-4.2,1.5-7.6,4.5-10c2.8-2.4,6.6-3.5,11.3-3.5
		c1.5,0,2.9,0.1,4.2,0.4s2.8,0.7,4.5,1.4c0.9,0.3,1.5,0.5,1.9,0.5c0.3,0,0.6-0.1,0.9-0.4l0.5,0.3l-3.1,6.3l-0.6-0.3
		c0-0.4-0.1-0.7-0.2-0.9c-0.1-0.2-0.3-0.4-0.7-0.7c-0.8-0.6-1.9-1.1-3.4-1.5s-2.9-0.6-4.3-0.6c-2.7,0-5,0.8-6.8,2.3
		c-2,1.7-3.1,4-3.1,6.9c0,2.8,1,5,3,6.7c1.8,1.6,4.2,2.3,7.2,2.3c1.4,0,2.9-0.2,4.3-0.5c1.4-0.3,2.6-0.8,3.7-1.4v-3.8L211.6,110.8
		L211.6,110.8z"></path>
                <path fill="#FFFFFF" d="M240.5,113.5h-11.9l-1.8,3.7c-0.2,0.5-0.4,0.9-0.4,1.2c0,0.6,0.4,1,1.3,1.2v0.6H219v-0.6
		c0.5-0.1,0.9-0.3,1.2-0.5c0.3-0.3,0.6-0.8,0.9-1.5l9.7-20.2c0.3-0.6,0.5-1.2,0.5-1.5c0-0.6-0.4-1-1.1-1.3V94h9.3v0.6
		c-0.8,0.2-1.1,0.6-1.1,1.1c0,0.4,0.1,0.8,0.4,1.3l10,20.2c0.4,0.9,0.8,1.4,1.1,1.8s0.8,0.5,1.3,0.6v0.6h-9.7v-0.6
		c0.8-0.1,1.3-0.5,1.3-1.2c0-0.3-0.1-0.7-0.4-1.2L240.5,113.5z M238.8,109.9l-4.3-9.4l-4.3,9.4H238.8z"></path>
                <path fill="#FFFFFF" d="M304.4,113.5h-11.9l-1.8,3.7c-0.2,0.5-0.4,0.9-0.4,1.2c0,0.6,0.4,1,1.3,1.2v0.6h-8.7v-0.6
		c0.5-0.1,0.9-0.3,1.2-0.5c0.3-0.3,0.6-0.8,0.9-1.5l9.7-20.2c0.3-0.6,0.5-1.2,0.5-1.5c0-0.6-0.4-1-1.1-1.3V94h9.3v0.6
		c-0.8,0.2-1.1,0.6-1.1,1.1c0,0.4,0.1,0.8,0.4,1.3l10,20.2c0.4,0.9,0.8,1.4,1.1,1.8s0.8,0.5,1.3,0.6v0.6h-9.7v-0.6
		c0.8-0.1,1.3-0.5,1.3-1.2c0-0.3-0.1-0.7-0.4-1.2L304.4,113.5z M302.7,109.9l-4.3-9.4l-4.3,9.4H302.7z"></path>
                <path fill="#FFFFFF" d="M323.6,102.2v16c0,0.4,0.1,0.7,0.3,0.9c0.2,0.2,0.5,0.4,1,0.5v0.6h-7.7v-0.6c0.5-0.1,0.8-0.3,1-0.5
		s0.3-0.5,0.3-0.9V95.9c0-0.4-0.1-0.7-0.3-0.9c-0.2-0.2-0.5-0.4-1-0.5v-0.6h8.9v0.6c-0.6,0.1-0.8,0.4-0.8,0.9c0,0.3,0.2,0.6,0.5,1
		l14.5,15.1V95.9c0-0.4-0.1-0.7-0.3-0.9c-0.2-0.2-0.5-0.4-1-0.5v-0.6h7.7v0.6c-0.5,0.1-0.8,0.3-1,0.5s-0.3,0.5-0.3,0.9v22.2
		c0,0.4,0.1,0.7,0.3,0.9c0.2,0.2,0.5,0.4,1,0.5v0.6h-8.3v-0.6c0.5-0.1,0.8-0.4,0.8-0.8c0-0.3-0.3-0.7-0.9-1.3L323.6,102.2z"></path>
                <path fill="#FFFFFF" d="M365.3,98.3v19.9c0,0.4,0.1,0.7,0.3,0.9c0.2,0.2,0.5,0.4,1,0.5v0.6h-8.2v-0.6c0.5-0.1,0.8-0.3,1-0.5
		s0.3-0.5,0.3-0.9V98.3h-8.2c-0.4,0-0.7,0.1-0.9,0.3s-0.4,0.5-0.5,1h-0.6v-6.8h0.6c0.1,0.5,0.3,0.8,0.5,1s0.5,0.3,0.9,0.3h22
		c0.4,0,0.7-0.1,0.9-0.3c0.2-0.2,0.4-0.5,0.5-1h0.6v6.8h-0.6c-0.1-0.5-0.3-0.8-0.5-1s-0.5-0.3-0.9-0.3H365.3z"></path>
                <path fill="#FFFFFF" d="M379.3,118.2V95.9c0-0.4-0.1-0.7-0.3-0.9s-0.5-0.4-1-0.5v-0.6h8.2v0.6c-0.5,0.1-0.8,0.3-1,0.5
		s-0.3,0.5-0.3,0.9v22.2c0,0.4,0.1,0.7,0.3,0.9c0.2,0.2,0.5,0.4,1,0.5v0.6H378v-0.6c0.5-0.1,0.8-0.3,1-0.5S379.3,118.6,379.3,118.2z
		"></path>
            </g>
            <g>
                <path fill="#FFFFFF" d="M107.8,138.7v5.7c0,0.2,0.1,0.4,0.2,0.6c0.1,0.1,0.3,0.2,0.6,0.3v0.4h-5v-0.4c0.3-0.1,0.5-0.2,0.6-0.3
		s0.2-0.3,0.2-0.5V131c0-0.2-0.1-0.4-0.2-0.5s-0.3-0.2-0.6-0.3v-0.4h14.1c0.2,0,0.4-0.1,0.5-0.2c0.1-0.1,0.2-0.3,0.3-0.6h0.4v4.1
		h-0.4c-0.1-0.3-0.2-0.5-0.3-0.6c-0.1-0.1-0.3-0.2-0.5-0.2h-9.9v3.8h6.4c0.2,0,0.4-0.1,0.5-0.2c0.1-0.1,0.2-0.3,0.3-0.6h0.4v4H115
		c-0.1-0.3-0.2-0.5-0.3-0.6c-0.1-0.1-0.3-0.2-0.5-0.2h-6.4C107.8,138.5,107.8,138.7,107.8,138.7z"></path>
                <path fill="#FFFFFF" d="M150.9,129.4c2.8,0,5,0.8,6.6,2.3c1.7,1.6,2.6,3.6,2.6,6.1c0,1.5-0.4,2.9-1.2,4.3c-1.6,2.6-4.3,3.9-7.9,3.9
		c-2.8,0-4.9-0.8-6.6-2.3c-0.9-0.8-1.5-1.8-2-2.9c-0.4-1-0.6-2-0.6-3.1c0-1.6,0.4-3.1,1.2-4.4C144.6,130.8,147.2,129.5,150.9,129.4z
		 M151,132.1c-1.5,0-2.8,0.5-3.8,1.4c-1.2,1.1-1.8,2.5-1.8,4.2s0.6,3.1,1.8,4.2c1,0.9,2.3,1.4,3.8,1.4s2.8-0.5,3.8-1.4
		c0.6-0.5,1.1-1.2,1.4-2c0.3-0.7,0.4-1.4,0.4-2.1c0-1.8-0.6-3.2-1.8-4.3C153.8,132.6,152.5,132.1,151,132.1z"></path>
                <path fill="#FFFFFF" d="M188.2,134.7v9.7c0,0.2,0.1,0.4,0.2,0.5c0.1,0.1,0.3,0.2,0.6,0.3v0.4h-4.7v-0.4c0.3-0.1,0.5-0.2,0.6-0.3
		s0.2-0.3,0.2-0.5v-13.5c0-0.2-0.1-0.4-0.2-0.5c-0.1-0.1-0.3-0.2-0.6-0.3v-0.4h5.4v0.4c-0.3,0.1-0.5,0.3-0.5,0.5s0.1,0.4,0.3,0.6
		l8.8,9.1v-9.4c0-0.2-0.1-0.4-0.2-0.5c-0.1-0.1-0.3-0.2-0.6-0.3v-0.4h4.7v0.4c-0.3,0.1-0.5,0.2-0.6,0.3s-0.2,0.3-0.2,0.5v13.5
		c0,0.2,0.1,0.4,0.2,0.5c0.1,0.1,0.3,0.2,0.6,0.3v0.4h-5v-0.4c0.3-0.1,0.5-0.2,0.5-0.5c0-0.2-0.2-0.4-0.6-0.8L188.2,134.7z"></path>
                <path fill="#FFFFFF" d="M227.4,144.4v-13.5c0-0.2-0.1-0.4-0.2-0.5c-0.1-0.1-0.3-0.2-0.6-0.3v-0.4h8.9c1.9,0,3.4,0.2,4.5,0.7
		c1.5,0.6,2.6,1.7,3.3,3.2c0.6,1.2,0.9,2.5,0.9,4.1c0,2.7-0.8,4.8-2.5,6.3c-0.7,0.6-1.5,1-2.5,1.3c-0.9,0.3-2.2,0.4-3.6,0.4h-8.9
		v-0.4c0.3-0.1,0.5-0.2,0.6-0.3C227.3,144.8,227.4,144.6,227.4,144.4z M230.9,143h4.4c1.4,0,2.4-0.2,3.1-0.6
		c1.5-0.8,2.3-2.4,2.3-4.8c0-1.7-0.4-3-1.2-3.9c-0.5-0.5-1-0.9-1.6-1.1c-0.6-0.2-1.5-0.3-2.5-0.3H231V143H230.9z"></path>
                <path fill="#FFFFFF" d="M272.5,138.6v4.4h10.2c0.2,0,0.4-0.1,0.5-0.2s0.2-0.3,0.3-0.6h0.4v4.1h-0.4c-0.1-0.3-0.2-0.5-0.3-0.6
		c-0.1-0.1-0.3-0.2-0.5-0.2h-14.5v-0.4c0.3-0.1,0.5-0.2,0.6-0.3s0.2-0.3,0.2-0.5v-13.5c0-0.2-0.1-0.4-0.2-0.5s-0.3-0.2-0.6-0.3v-0.4
		h14.2c0.2,0,0.4-0.1,0.5-0.2c0.1-0.1,0.2-0.3,0.3-0.6h0.4v4.1h-0.4c-0.1-0.3-0.2-0.5-0.3-0.6c-0.1-0.1-0.3-0.2-0.5-0.2h-10v3.8h6.5
		c0.2,0,0.4-0.1,0.5-0.2c0.1-0.1,0.2-0.3,0.3-0.6h0.4v4h-0.4c-0.1-0.3-0.2-0.5-0.3-0.6c-0.1-0.1-0.3-0.2-0.5-0.2h-6.4L272.5,138.6
		L272.5,138.6z"></path>
                <path fill="#FFFFFF" d="M312,134.7v9.7c0,0.2,0.1,0.4,0.2,0.5s0.3,0.2,0.6,0.3v0.4H308v-0.4c0.3-0.1,0.5-0.2,0.6-0.3s0.2-0.3,0.2-0.5
		v-13.5c0-0.2-0.1-0.4-0.2-0.5s-0.3-0.2-0.6-0.3v-0.4h5.4v0.4c-0.3,0.1-0.5,0.3-0.5,0.5s0.1,0.4,0.3,0.6l8.8,9.1v-9.4
		c0-0.2-0.1-0.4-0.2-0.5s-0.3-0.2-0.6-0.3v-0.4h4.7v0.4c-0.3,0.1-0.5,0.2-0.6,0.3s-0.2,0.3-0.2,0.5v13.5c0,0.2,0.1,0.4,0.2,0.5
		s0.3,0.2,0.6,0.3v0.4h-5v-0.4c0.3-0.1,0.5-0.2,0.5-0.5c0-0.2-0.2-0.4-0.6-0.8L312,134.7z"></path>
            </g>
            <path fill="#FFFFFF" d="M36.3,101h4.8v7.8h-4.8l0,0l0,0c-0.2,0-0.3,0.2-0.5,0.3c-0.3,0.3-0.5,0.6-0.5,1.1l0,0l0,0v40.6l0,0l0,0
	c0,0.5,0.2,0.8,0.5,1.1c0.2,0.2,0.3,0.2,0.5,0.2l0,0l0,0h359.4l0,0l0,0c0.2,0,0.3,0,0.5-0.2c0.3-0.3,0.5-0.6,0.5-1.1l0,0l0,0v-40.6
	l0,0l0,0c0-0.5-0.2-0.8-0.5-1.1c-0.2-0.2-0.3-0.3-0.5-0.3l0,0l0,0h-6V101h6l0,0l0,0c2.5,0,4.8,1.1,6.4,2.9c1.6,1.6,2.5,3.7,2.5,6.2
	l0,0l0,0v40.6l0,0l0,0c0,2.5-0.9,4.7-2.5,6.4c-1.5,1.7-3.9,2.8-6.4,2.8v0.2l0,0H36.3l0,0v-0.2c-2.5,0-4.8-1.1-6.4-2.8
	s-2.5-3.9-2.5-6.4l0,0l0,0v-40.6l0,0l0,0c0-2.5,0.9-4.7,2.5-6.2C31.5,102.1,33.8,101,36.3,101L36.3,101L36.3,101z"></path>
        </g>
</svg>